<svg width="12" height="12" viewBox="0 0 12 12" fill="none" xmlns="http://www.w3.org/2000/svg">
<g clip-path="url(#clip0_75_103)">
<circle cx="6.5" cy="5.5" r="3.5" fill="#3AFCC2"/>
<path d="M9.972 1.32089L6 0.00439453L2.028 1.32089C1.72874 1.4201 1.46834 1.61108 1.2838 1.86671C1.09926 2.12234 0.999959 2.42961 1 2.74489V5.99988C1 9.76188 5.6 11.8394 5.797 11.9259L5.974 12.0044L6.158 11.9434C6.356 11.8774 11 10.2884 11 5.99988V2.74489C11 2.42961 10.9007 2.12234 10.7162 1.86671C10.5317 1.61108 10.2713 1.4201 9.972 1.32089ZM6.222 6.99438C6.13459 7.08237 6.03058 7.15213 5.91599 7.19959C5.8014 7.24706 5.67853 7.27129 5.5545 7.27088H5.538C5.41145 7.26894 5.2866 7.24136 5.17101 7.18979C5.05542 7.13823 4.95149 7.06376 4.8655 6.97088L3.7125 5.77088L4.434 5.07989L5.556 6.24988L8.1465 3.65939L8.8535 4.36639L6.222 6.99438Z" fill="#7759F3"/>
</g>
<defs>
<clipPath id="clip0_75_103">
<rect width="12" height="12" fill="white"/>
</clipPath>
</defs>
</svg>
