<svg xmlns="http://www.w3.org/2000/svg" version="1.1" xmlns:xlink="http://www.w3.org/1999/xlink" xmlns:svgjs="http://svgjs.com/svgjs" width="512" height="512" x="0" y="0" viewBox="0 0 24 24" style="enable-background:new 0 0 512 512" xml:space="preserve" class=""><g><path xmlns="http://www.w3.org/2000/svg" d="M20,19.75H4A2.76,2.76,0,0,1,1.25,17V7A2.76,2.76,0,0,1,4,4.25H20A2.76,2.76,0,0,1,22.75,7V17A2.76,2.76,0,0,1,20,19.75ZM4,5.75A1.25,1.25,0,0,0,2.75,7V17A1.25,1.25,0,0,0,4,18.25H20A1.25,1.25,0,0,0,21.25,17V7A1.25,1.25,0,0,0,20,5.75Z" fill="#000000" data-original="#000000"></path><path xmlns="http://www.w3.org/2000/svg" d="M12,13.35a3.25,3.25,0,0,1-1.65-.45L1.62,7.71a.76.76,0,0,1-.27-1,.74.74,0,0,1,1-.26l8.74,5.18a1.69,1.69,0,0,0,1.76,0l8.74-5.18a.74.74,0,0,1,1,.26.76.76,0,0,1-.27,1L13.65,12.9A3.25,3.25,0,0,1,12,13.35Z" fill="#000000" data-original="#000000"></path></g></svg>