<svg width="20" height="20" viewBox="0 0 20 20" fill="none" xmlns="http://www.w3.org/2000/svg">
<g clip-path="url(#clip0_75_136)">
<circle cx="10.8333" cy="9.16658" r="5.83333" fill="#3AFCC2"/>
<path d="M16.62 2.20173L10 0.00756836L3.37999 2.20173C2.88122 2.36708 2.44723 2.68538 2.13966 3.11142C1.83209 3.53747 1.66659 4.0496 1.66666 4.57506V10C1.66666 16.27 9.33333 19.7325 9.66166 19.8767L9.95666 20.0075L10.2633 19.9059C10.5933 19.7959 18.3333 17.1475 18.3333 10V4.57506C18.3334 4.0496 18.1679 3.53747 17.8603 3.11142C17.5528 2.68538 17.1188 2.36708 16.62 2.20173ZM10.37 11.6575C10.2243 11.8042 10.051 11.9205 9.85997 11.9996C9.669 12.0787 9.46421 12.1191 9.25749 12.1184H9.22999C9.01907 12.1151 8.81099 12.0692 8.61834 11.9832C8.42569 11.8973 8.25247 11.7732 8.10916 11.6184L6.18749 9.61838L7.38999 8.46672L9.25999 10.4167L13.5775 6.09922L14.7558 7.27755L10.37 11.6575Z" fill="#7759F3"/>
</g>
<defs>
<clipPath id="clip0_75_136">
<rect width="20" height="20" fill="white"/>
</clipPath>
</defs>
</svg>
