<svg xmlns="http://www.w3.org/2000/svg" version="1.1" xmlns:xlink="http://www.w3.org/1999/xlink" xmlns:svgjs="http://svgjs.com/svgjs" width="512" height="512" x="0" y="0" viewBox="0 0 512 512" style="enable-background:new 0 0 512 512" xml:space="preserve" class=""><g><path xmlns="http://www.w3.org/2000/svg" d="m256 100c-49.626 0-90 40.374-90 90s40.374 90 90 90 90-40.374 90-90-40.374-90-90-90zm0 160c-38.598 0-70-31.402-70-70s31.402-70 70-70 70 31.402 70 70-31.402 70-70 70z" fill="#000000" data-original="#000000" class=""></path><circle xmlns="http://www.w3.org/2000/svg" cx="346" cy="376" r="10" fill="#000000" data-original="#000000" class=""></circle><path xmlns="http://www.w3.org/2000/svg" d="m391.921 292.132-28.849 40.863c-3.186 4.512-2.11 10.751 2.401 13.937 4.513 3.185 10.753 2.109 13.937-2.402l28.768-40.749c24.745-33.047 37.822-72.387 37.822-113.781 0-104.767-85.233-190-190-190s-190 85.233-190 190c0 41.394 13.077 80.734 37.822 113.782l132.877 188.218h-130.699c-5.522 0-10 4.477-10 10s4.478 10 10 10h300c5.522 0 10-4.477 10-10s-4.478-10-10-10h-130.699l52.231-73.984c3.186-4.512 2.11-10.751-2.401-13.937-4.514-3.186-10.753-2.11-13.937 2.402l-55.194 78.18s-136.032-192.684-136.09-192.761c-22.183-29.582-33.91-64.819-33.91-101.9 0-93.738 76.262-170 170-170s170 76.262 170 170c0 37.081-11.727 72.318-33.91 101.9-.058.077-.114.154-.169.232z" fill="#000000" data-original="#000000" class=""></path></g></svg>
