<svg xmlns="http://www.w3.org/2000/svg" version="1.1" xmlns:xlink="http://www.w3.org/1999/xlink" xmlns:svgjs="http://svgjs.com/svgjs" width="512" height="512" x="0" y="0" viewBox="0 0 511 511.9996" style="enable-background:new 0 0 512 512" xml:space="preserve" class=""><g><path xmlns="http://www.w3.org/2000/svg" d="m462.476562 120.011719c0 5.523437-4.476562 10-10 10-5.523437 0-10-4.476563-10-10 0-5.523438 4.476563-10 10-10 5.523438 0 10 4.476562 10 10zm0 0" fill="#000000" data-original="#000000" class=""></path><path xmlns="http://www.w3.org/2000/svg" d="m402.472656 120.011719c0 5.523437-4.476562 10-10 10-5.523437 0-10.003906-4.476563-10.003906-10 0-5.523438 4.480469-10 10.003906-10 5.523438 0 10 4.476562 10 10zm0 0" fill="#000000" data-original="#000000" class=""></path><path xmlns="http://www.w3.org/2000/svg" d="m342.46875 120.011719c0 5.523437-4.480469 10-10.003906 10-5.523438 0-10-4.476563-10-10 0-5.523438 4.476562-10 10-10 5.523437 0 10.003906 4.476562 10.003906 10zm0 0" fill="#000000" data-original="#000000" class=""></path><path xmlns="http://www.w3.org/2000/svg" d="m392.472656 0c-66.175781 0-120.011718 53.835938-120.011718 120.011719 0 23.992187 7.070312 47.007812 20.503906 66.882812l-19.992188 59.964844c-1.277344 3.839844-.117187 8.066406 2.9375 10.71875 3.0625 2.660156 7.417969 3.191406 11.023438 1.390625l57.855468-28.929688c15.195313 6.628907 31.210938 9.984376 47.683594 9.984376 66.171875 0 120.011719-53.839844 120.011719-120.011719 0-66.175781-53.839844-120.011719-120.011719-120.011719zm0 220.019531c-15.074218 0-29.714844-3.386719-43.503906-10.070312-2.792969-1.351563-6.058594-1.332031-8.835938.054687l-40.546874 20.273438 13.953124-41.855469c1.03125-3.09375.492188-6.492187-1.445312-9.113281-12.84375-17.355469-19.632812-37.859375-19.632812-59.296875 0-55.144531 44.863281-100.007813 100.011718-100.007813 55.144532 0 100.007813 44.863282 100.007813 100.007813s-44.863281 100.007812-100.007813 100.007812zm0 0" fill="#000000" data-original="#000000" class=""></path><path xmlns="http://www.w3.org/2000/svg" d="m198.453125 322.027344c0 5.523437-4.476563 10.003906-10 10.003906s-10-4.480469-10-10.003906c0-5.523438 4.476563-10 10-10s10 4.476562 10 10zm0 0" fill="#000000" data-original="#000000" class=""></path><path xmlns="http://www.w3.org/2000/svg" d="m347.417969 315.617188c-3.902344-3.90625-10.238281-3.902344-14.144531 0l-47.9375 47.929687c-6.804688 6.808594-17.308594 8.195313-24.972657 3.300781-11.011719-7.035156-21.773437-14.722656-31.980469-22.851562-4.320312-3.4375-10.613281-2.722656-14.054687 1.597656-3.4375 4.324219-2.722656 10.613281 1.597656 14.054688 10.75 8.554687 22.074219 16.648437 33.671875 24.054687 15.519532 9.910156 36.503906 7.378906 49.886719-6.015625l40.859375-40.855469 93.917969 93.90625-37.003907 36.992188c-23.882812 23.890625-59.804687 30.957031-89.386718 17.589843-157.300782-71.085937-239.152344-191.605468-280.117188-280.191406-14.066406-30.417968-7.3125-67.058594 16.808594-91.175781l36.449219-36.457031 93.917969 93.910156-40.863282 40.859375c-13.394531 13.394531-15.917968 34.378906-6.003906 49.890625 7.070312 11.070312 14.777344 21.910156 22.902344 32.21875 3.417968 4.339844 9.707031 5.085938 14.042968 1.664062 4.339844-3.417968 5.085938-9.707031 1.664063-14.042968-7.71875-9.792969-15.039063-20.09375-21.757813-30.609375-4.898437-7.664063-3.511718-18.167969 3.296876-24.976563l47.933593-47.933594c3.902344-3.90625 3.90625-10.238281 0-14.144531l-108.058593-108.050781c-3.90625-3.902344-10.238282-3.902344-14.144532 0l-43.523437 43.527344c-30.023438 30.019531-38.386719 75.722656-20.816407 113.71875 58.324219 126.125 157.167969 229.976562 290.035157 290.019531 37.335937 16.875 82.21875 7.886719 111.765625-21.671875l44.074218-44.0625c3.902344-3.90625 3.90625-10.242188 0-14.144531zm0 0" fill="#000000" data-original="#000000" class=""></path></g></svg>